# xmcd
#
# Track frame offsets: 
#        300
#        17932
#        38384
#        59783
#        87949
#        127008
#        148937
#        177073
#        199893
#        219145
#        243889
#        268193
#        286258
#
# Disc length: 4024 seconds
#
# Revision: 1
# Processed by: cddbd v1.5.2PL0 Copyright (c) Steve Scherf et al.
# Submitted via: ExactAudioCopy v0.99pb4
#
DISCID=c20fb40d
DTITLE=Tom Browne - The Collection
DYEAR=2003
DGENRE=EMI
TTITLE0=Jam Fo' Real
TTITLE1=Ghetto Horn
TTITLE2=Someday We'll All Be Free
TTITLE3=Watermelon Man
TTITLE4=In a Sentimental Mood
TTITLE5=Everybody Loves the Sunshine
TTITLE6=All Blues
TTITLE7=Freedom Jazz Dance
TTITLE8=First Flight
TTITLE9=That's What Friends Are For
TTITLE10=Un-Break My Heart
TTITLE11="Philly" Twist
TTITLE12=Bluesnova (Browne-Town Mix)
EXTD=YEAR: 2003
EXTT0=
EXTT1=
EXTT2=
EXTT3=
EXTT4=
EXTT5=
EXTT6=
EXTT7=
EXTT8=
EXTT9=
EXTT10=
EXTT11=
EXTT12=
PLAYORDER=
